<svg xmlns="http://www.w3.org/2000/svg" x="0" y="0" width="76" height="611.5" viewBox="0 0 76 611.5" fill="#5D6F7A"><style>.a{fill:#657885;}.b{fill:#5D6F7A;}</style><path d="M58.698 97.574l-9.988 9.99c-0.303 0.301-0.896 0.547-1.32 0.547h-0.605c-0.424 0-0.772-0.348-0.772-0.775v-4.6c0-0.425-0.348-0.773-0.773-0.773h-1.99c-0.426 0-0.773-0.348-0.773-0.774v-9.824c-1.467-0.181-2.959-0.275-4.476-0.275 -12.117 0-22.845 5.94-29.435 15.066 0 0 2.908-0.746 3.54-1.276l13.24-6.746c0.39-0.198 1.062-0.36 1.498-0.36h10.856c0.435 0 0.793 0.357 0.793 0.792v1.734c0 0.435-0.358 0.792-0.793 0.792h-5.19c-0.435 0-1.065 0.226-1.402 0.502l-2.647 2.174c-0.336 0.277-0.281 0.635 0.123 0.797l2.677 1.07c0.405 0.162 0.989 0.044 1.299-0.26l0.342-0.337c0.312-0.305 0.92-0.554 1.355-0.554h7.167c0.436 0 0.793 0.355 0.793 0.792v4.076c0 0.435-0.258 1.036-0.574 1.337l-9.09 8.651c-0.315 0.3-0.573 0.902-0.573 1.336v4.704c0 0.434-0.355 0.791-0.792 0.791h-1.223c-0.435 0-0.791-0.357-0.791-0.791v-2.033c0-0.434-0.356-0.791-0.791-0.791h-2.874c-0.436 0-0.791 0.356-0.791 0.791v2.975c0 0.436 0.296 0.989 0.658 1.23l4.461 2.977c0.361 0.241 1.015 0.438 1.449 0.438h8.158c0.436 0 1.103 0.168 1.488 0.374l10.165 5.457c0.383 0.207 0.57 0.707 0.414 1.113l-3.398 8.895c-0.154 0.406-0.553 0.971-0.883 1.254l-8.87 7.612c-0.33 0.283-0.533 0.865-0.447 1.292l0.685 3.476c-0.071 0.817-1.44 0.777-1.44 0.777 -0.437 0-1.047-0.248-1.359-0.553l-2.094-2.039c-0.312-0.303-0.566-0.909-0.566-1.343v-23.089c0-0.436-0.355-0.792-0.792-0.792h-2.379c-0.435 0-1.093-0.191-1.459-0.425l-6.092-3.867c-0.367-0.233-0.881-0.709-1.145-1.057l-3.884-5.178c-0.263-0.348-0.831-0.633-1.267-0.633h-1.012c-0.435 0-0.958-0.314-1.164-0.697 0 0-3.518-6.189-3.755-7.794v-3.917c0-0.435-0.355-0.792-0.791-0.792H6.682c-3.155 5.379-4.966 11.643-4.966 18.33 0 20.038 16.245 36.283 36.283 36.283 20.042 0 36.287-16.245 36.287-36.283C74.283 115.03 68.115 104.129 58.698 97.574" class="a"/><path d="M40.174 3.71c-0.711 0-0.99-0.275-0.954-0.911V1C24.251 1.715 24.354 13.943 24.354 13.943v11.849l3.125 2.703v2.376c1.597 11.478 10.813 11.056 10.813 11.056 0.015 0 9.42 0.442 10.909-11.33 0 0-0.02-0.021 0-0.068v-2.034l2.969-2.532V14.867C52.108 9.409 46.856 3.71 40.174 3.71" class="a"/><path d="M71.617 56.955c-0.363-1.375-0.822-2.847-2.041-3.775 -1.305-0.995-20.136-9.128-20.136-9.128L38.42 66.964h-0.352L27.045 44.051l-16.924 7.25c-3.277 1.128-4.86 3.009-5.322 5.317l-3.18 21.095 72.765-0.007L71.617 56.955z" class="a"/><path d="M74.268 242.031l-18.913-19.278c2.617-4.379 4.127-9.496 4.127-14.958 0-16.123-13.117-29.239-29.242-29.239C14.117 178.556 1 191.672 1 207.795s13.119 28.941 29.239 29.242c6.57 0.12 12.36-2.386 17.047-5.581l18.565 18.922c1.295 1.152 3.82 1.498 6.703-1.429C75.438 246.023 75.436 243.151 74.268 242.031zM10.199 207.795c0-11.048 8.989-20.038 20.04-20.038 11.05 0 20.041 8.99 20.041 20.038 0 11.051-8.991 20.04-20.041 20.04C19.188 227.835 10.199 218.846 10.199 207.795z" class="a"/><path d="M70.988 551.314c2.473-4.941 3.863-10.517 3.863-16.408 0-20.32-16.53-36.853-36.855-36.853 -20.318 0-36.851 16.53-36.851 36.853 0 6.018 1.45 11.7 4.019 16.722l32.832 55.507L70.988 551.314zM37.997 512.89c12.145 0 22.02 9.874 22.02 22.017 0 12.141-9.877 22.017-22.02 22.017 -12.14 0-22.016-9.876-22.016-22.017C15.981 522.764 25.858 512.89 37.997 512.89z" fill="#32465C"/><path d="M12.053 265.111l25.954 27.58 25.936-27.58 8.673 8.282 -34.609 39.566L3.383 273.393 12.053 265.111z" class="a"/><path d="M65.516 325.303c4.736 0 8.613 3.875 8.613 8.614v31.195c0 4.736-3.877 8.611-8.613 8.611h-8.579l0.133 0.007c-2.594 0-3.824 1.316-2.963 4.307l6.199 20.514c0.164 0.437 0.006 0.785-0.322 0.785 -0.109 0-0.238-0.041-0.381-0.13 -0.312-0.195-28.468-25.478-28.24-25.476l0 0 0.146-0.007H10.484c-4.737 0-8.612-3.874-8.612-8.611v-31.195c0-4.738 3.875-8.614 8.612-8.614H65.516" class="b"/><path d="M46.109 455.826c6.243-6.197 12.216-13.381 9.382-16.235 -4.062-4.094-7.604-6.623-0.346-15.577 7.256-8.965 12.044-2.045 15.979 1.919 4.545 4.578 0.156 21.55-16.694 38.279 -16.858 16.729-33.863 20.983-38.404 16.407 -3.934-3.964-10.818-8.805-1.804-15.997 9.015-7.188 11.515-3.628 15.577 0.465C32.636 467.944 39.862 462.024 46.109 455.826M37.053 426.261c-4.706 0.738-9.623 3.018-13.541 6.936 -3.917 3.918-6.199 8.836-6.937 13.54 0 0-0.293 1.886 1.024 3.203 1.356 1.357 3.696 1.416 5.126-0.014 0.845-0.846 1.025-2.037 1.025-2.037 0.436-2.326 1.174-5.827 4.9-9.554 3.727-3.726 7.228-4.463 9.55-4.898 0 0 1.192-0.182 2.037-1.024 1.431-1.431 1.371-3.769 0.015-5.127C38.935 425.966 37.053 426.261 37.053 426.261M19.387 429.069c6.831-6.829 14.583-9.74 20.865-8.794 0 0 1.988 0.332 3.289-0.969 1.465-1.461 1.383-3.784 0.012-5.151 -0.883-0.881-2.312-1.071-2.312-1.071 -5.428-0.781-16.349 0.203-26.99 10.85 -10.644 10.64-11.629 21.561-10.846 26.99 0 0 0.192 1.432 1.071 2.311 1.369 1.369 3.687 1.451 5.148-0.01 1.299-1.299 0.969-3.289 0.969-3.289C9.644 443.652 12.556 435.901 19.387 429.069" class="b"/></svg>